<?xml version="1.0" encoding="utf-8"?>
<!-- Generator: Adobe Illustrator 22.0.1, SVG Export Plug-In . SVG Version: 6.00 Build 0)  -->
<svg version="1.1" id="Слой_1" xmlns="http://www.w3.org/2000/svg" xmlns:xlink="http://www.w3.org/1999/xlink" x="0px" y="0px"
	 viewBox="0 0 512 512" style="enable-background:new 0 0 512 512;" xml:space="preserve">
<path d="M90,512h137c8.3,0,15-6.7,15-15V345c0-8.3-6.7-15-15-15h-30c-8.3,0-15-6.7-15-15v-30c0-8.3,6.7-15,15-15h30
	c8.3,0,15-6.7,15-15v-45c0-49.7,40.3-90,90-90h45c8.3,0,15,6.7,15,15v30c0,8.3-6.7,15-15,15h-30c-24.9,0-45,20.1-45,45v30
	c0,8.3,6.7,15,15,15h54.6c9.3,0,16.3,8.3,14.8,17.5l-5,30c-1.2,7.2-7.5,12.5-14.8,12.5H317c-8.3,0-15,6.7-15,15v152
	c0,8.3,6.7,15,15,15h105c49.7,0,90-40.3,90-90V90c0-49.7-40.3-90-90-90H90C40.3,0,0,40.3,0,90v332C0,471.7,40.3,512,90,512z M30,90
	c0-33.1,26.9-60,60-60h332c33.1,0,60,26.9,60,60v332c0,33.1-26.9,60-60,60h-75c-8.3,0-15-6.7-15-15v-92c0-8.3,6.7-15,15-15h45
	c7.3,0,13.6-5.3,14.8-12.5l15-90c1.5-9.1-5.5-17.5-14.8-17.5h-60c-8.3,0-15-6.7-15-15v0c0-8.3,6.7-15,15-15h60c8.3,0,15-6.7,15-15
	v-90c0-8.3-6.7-15-15-15h-75c-66.3,0-120,53.7-120,120v15c0,8.3-6.7,15-15,15h-30c-8.3,0-15,6.7-15,15v90c0,8.3,6.7,15,15,15h30
	c8.3,0,15,6.7,15,15v92c0,8.3-6.7,15-15,15H90c-33.1,0-60-26.9-60-60V90z"/>
</svg>
