<?xml version="1.0" encoding="utf-8"?>
<!-- Generator: Adobe Illustrator 22.0.1, SVG Export Plug-In . SVG Version: 6.00 Build 0)  -->
<svg version="1.1"
	 id="svg2" xmlns:cc="http://creativecommons.org/ns#" xmlns:dc="http://purl.org/dc/elements/1.1/" xmlns:inkscape="http://www.inkscape.org/namespaces/inkscape" xmlns:rdf="http://www.w3.org/1999/02/22-rdf-syntax-ns#" xmlns:sodipodi="http://sodipodi.sourceforge.net/DTD/sodipodi-0.dtd" xmlns:svg="http://www.w3.org/2000/svg"
	 xmlns="http://www.w3.org/2000/svg" xmlns:xlink="http://www.w3.org/1999/xlink" x="0px" y="0px" viewBox="0 0 512.3 512.2"
	 style="enable-background:new 0 0 512.3 512.2;" xml:space="preserve">
<style type="text/css">
	.st0{stroke:#000000;stroke-width:10;stroke-miterlimit:10;}
	.st1{display:none;}
</style>
<g id="g3396" transform="matrix(0.64050449,0,0,0.64031522,0,25.600003)">
	<path id="path3398" class="st0" d="M522.7,529l-47.8-60.4c-2.7-3.2-4.8-5.1-6.3-6.2l-1.7-1l-0.7,1.6l-10.9,48.6l-1.8,10.1
		c-3.1,10.4-9.8,21-23.5,23.6l-8.4,0.5h-55.2c-98.3,0-187-140-249.1-314.4l-0.4-1.6c-2.1-10.5-3.2-22.1,2-31.5
		c5.9-10.8,17.2-14.3,29-14.6l84.9,0.6c5.3,0,9.9,3.5,11.4,8.5c19.1,62.8,42.5,101.1,71.2,144.9l0.8,1.4c3.1,6.5,9.6,4.7,13-0.5
		l2-6.1V234c0-14.5-6.6-16.5-22.6-18.8c-7.3-1.1-12-8.5-9.7-15.5c7.7-24.5,33.1-37,68.2-37l32.4-0.8c26.2,0,49.9,11.2,49.9,44.8
		v129.6l2.3,1.3c4.3,1.5,12.7,1.8,19.5-8.9c29.4-41.5,63.4-91.1,68.1-117.1c0.2-1.1,0.5-2.1,1-3c6-12.6,22.4-21.5,29-23.5
		c0.9-0.3,2.8-0.8,5-0.8l88.4,0.1l5.5,0.1c2.1,0.3,4.1,0.7,6.1,1.4c5.3,1.9,9.1,5.4,11.5,9.4c4.8,7.9,4.2,16.7,4.6,20.3
		c0.2,1.2,0.2,2.4,0,3.6c-8.3,51.9-68,110.1-93,147.8c-6.4,8.9-6.5,15.5-0.5,22.8L680.1,494c9.6,13.7,9.1,28.8-1.1,39.5
		c-6.7,7-16.3,10.9-26.6,12.1l-9.6,0.3h-88.5l1.6-0.1c-11.6,1.5-20.7-3.3-27.4-10.1L522.7,529z M554.2,521.9h89
		c9.4,0.5,15.7-2.3,18.2-5c0.9-0.9,2-2.3,0.9-5.4l-1.9-3.5L578,404.9c-14.1-17.2-11.8-36-0.5-51.6c23.9-35.9,75.1-87.3,87.2-129.6
		l1.6-7.2l-0.4-4.6l-0.6-3.5h-2.5h-87.1l-2.9,1.3c-2.7,1.5-6,3.8-8.4,6.1l-2.4,3l-3,10.7c-10.2,28.7-35.9,67-57.8,98.2l-10.5,14.9
		l-6.7,8.2c-17.7,17.2-43.8,14.1-54.5-0.3c-2.5-3.4-4.4-7.8-4.4-12.8V206.8c0-15.5-7-20.7-25.6-20.7l-32.4,0.8
		c-15.6,0-26.2,2.7-33.3,6.5l-3.9,2.6l2.8,1c11.9,5.3,22.4,15.6,22.4,37.3L355,334.4c-2.3,31.2-40.5,45-57.6,20.7l-2.3-4
		c-25.5-38.9-47.8-74.8-66.4-127.4l-5-15.2l-75.9-0.5c-7.8,0.2-8.3,2.3-8.1,2.1c-0.5,0.9-1.1,3.3-0.5,8.7l0.9,5.7l11.9,32
		C214,417.2,292.6,522,366.3,522h55.8c7.6,0.4,9.2-8,9.6-13.7l0.3-1.7l11.1-49.6l0.3-1.2c1.5-4.6,3.9-9,7.6-12.5
		c5-4.7,11.4-6.8,18.2-5.9c9.5,1.2,17.8,8,24.5,16.2l48.3,61.1c5,7.1,8.2,7.8,10.7,7.5L554.2,521.9z"/>
	<path id="path3400" class="st1" d="M15.2,538.4V169.3C15.2,58.9,104.7-30.6,215-30.6h369c110.4,0,199.8,89.5,199.8,199.9v369.1
		c0,110.4-89.5,199.9-199.8,199.9H215C104.7,738.3,15.2,648.8,15.2,538.4z M759.9,538.4V169.3c0-96.7-79.1-175.9-175.8-175.9h-369
		c-96.7,0-175.8,79.1-175.8,175.9v369.1c0,97.1,78.7,175.9,175.8,175.9h369C680.8,714.3,759.9,635.1,759.9,538.4z"/>
	<path d="M582.9-39.5H216.3C97-39.5-0.1,57.6-0.1,176.9v366.7C-0.1,662.9,97,760,216.3,760h366.6c119.3,0,216.4-97.1,216.4-216.4
		V177C799.3,57.6,702.2-39.5,582.9-39.5z M752.4,543.7c0,93.5-76,169.6-169.5,169.6H216.3c-93.5,0-169.5-76.1-169.5-169.6V177
		c0-93.5,76-169.6,169.5-169.6h366.6c93.5,0,169.5,76.1,169.5,169.6V543.7z"/>
</g>
</svg>
